<svg xmlns="http://www.w3.org/2000/svg" width="21" height="18" fill="none" viewBox="0 0 21 18"><g clip-path="url(#clip0_5_405)"><path fill="#00D8FF" d="M17.1364 5.82837C16.9146 5.75457 16.6909 5.68621 16.4655 5.62334C16.5034 5.47334 16.5382 5.32516 16.5691 5.17958C17.077 2.78898 16.745 0.863054 15.611 0.228949C14.5237 -0.378945 12.7455 0.254923 10.9497 1.77048C10.7727 1.92011 10.5996 2.07405 10.4307 2.23216C10.3175 2.12702 10.2024 2.02393 10.0854 1.92292C8.20324 0.302449 6.3167 -0.380524 5.1839 0.255397C4.09759 0.865186 3.77592 2.67569 4.23315 4.94132C4.27863 5.1657 4.33 5.38893 4.38718 5.61079C4.12014 5.68437 3.86247 5.76268 3.61586 5.84605C1.4092 6.59211 0 7.76124 0 8.97395C0 10.2264 1.51284 11.4827 3.81117 12.2445C3.9975 12.306 4.18539 12.363 4.37464 12.4154C4.31318 12.6544 4.25861 12.8949 4.211 13.1368C3.77511 15.3632 4.1155 17.1309 5.19888 17.7368C6.31784 18.3625 8.19591 17.7194 10.0246 16.1693C10.1728 16.0433 10.3179 15.9137 10.4595 15.7806C10.6425 15.9518 10.8303 16.1181 11.0229 16.2791C12.7943 17.7572 14.5437 18.354 15.626 17.7464C16.7439 17.1189 17.1073 15.2199 16.6356 12.9095C16.5984 12.7285 16.5568 12.5484 16.5106 12.3693C16.6425 12.3314 16.772 12.2924 16.8981 12.2518C19.2875 11.4842 20.8421 10.2432 20.8421 8.97395C20.8421 7.75682 19.3874 6.57979 17.1364 5.82837ZM16.6182 11.4324C16.5042 11.4689 16.3873 11.5042 16.2681 11.5386C16.0043 10.7288 15.6484 9.86779 15.2127 8.97813C15.6284 8.10971 15.9707 7.25969 16.227 6.45521C16.4403 6.51505 16.6471 6.57813 16.8466 6.64469C18.7753 7.28858 19.9518 8.24045 19.9518 8.97395C19.9518 9.75521 18.6812 10.7694 16.6182 11.4324ZM15.7622 13.0772C15.9708 14.0987 16.0005 15.0224 15.8623 15.7446C15.7382 16.3934 15.4886 16.826 15.1799 16.9993C14.5231 17.3679 13.1185 16.8887 11.6036 15.6246C11.4245 15.4749 11.2498 15.3204 11.0795 15.1612C11.6669 14.5384 12.2538 13.8144 12.8266 13.0102C13.8342 12.9235 14.7861 12.7817 15.6493 12.5882C15.6918 12.7546 15.7296 12.9177 15.7622 13.0772ZM7.10553 16.9356C6.46382 17.1553 5.9527 17.1616 5.64373 16.9888C4.98631 16.6212 4.713 15.2018 5.0858 13.2979C5.13011 13.0729 5.18086 12.8492 5.23796 12.6269C6.09168 12.8101 7.03665 12.9418 8.0466 13.0212C8.62334 13.8081 9.22719 14.5313 9.83576 15.1646C9.70643 15.286 9.57404 15.4042 9.43871 15.5192C8.63002 16.2047 7.8197 16.691 7.10553 16.9356ZM4.09922 11.4276C3.08292 11.0907 2.24362 10.6529 1.66835 10.1752C1.15136 9.74598 0.89043 9.31974 0.89043 8.97395C0.89043 8.238 2.02185 7.29932 3.90895 6.66134C4.13797 6.58397 4.37766 6.51095 4.62638 6.44242C4.88723 7.26505 5.22933 8.12519 5.64219 8.99495C5.22396 9.87758 4.87697 10.7514 4.6136 11.5838C4.44084 11.5358 4.26933 11.4837 4.09922 11.4276ZM5.10697 4.77545C4.71528 2.83437 4.9754 1.37013 5.63006 1.00263C6.32729 0.611212 7.86912 1.16929 9.49423 2.56855C9.6002 2.66001 9.70446 2.75331 9.80694 2.84842C9.20138 3.47898 8.60307 4.19684 8.03146 4.97905C7.05123 5.06716 6.11292 5.20863 5.25026 5.39819C5.19711 5.19183 5.14933 4.98421 5.10697 4.77553V4.77545ZM14.0973 6.92818C13.8936 6.58689 13.6822 6.24989 13.4635 5.91742C14.1285 5.99897 14.7657 6.10721 15.364 6.23953C15.1844 6.79784 14.9605 7.3815 14.6969 7.97992C14.5043 7.62551 14.3044 7.27486 14.0973 6.92818ZM10.4311 3.46548C10.8417 3.89692 11.253 4.37858 11.6576 4.90121C10.8369 4.86363 10.0149 4.86347 9.19422 4.90074C9.59917 4.38292 10.014 3.9019 10.4311 3.46548ZM6.74128 6.93411C6.5368 7.27799 6.34062 7.62645 6.1529 7.97921C5.89367 7.38292 5.67182 6.79658 5.49067 6.23037C6.08533 6.10137 6.71946 5.9959 7.38022 5.91584C7.15905 6.25034 6.94601 6.58983 6.74128 6.93403V6.93411ZM7.39919 12.0935C6.71653 12.0196 6.07287 11.9196 5.47838 11.794C5.66238 11.2177 5.88912 10.6189 6.15396 10.0098C6.34242 10.3628 6.53941 10.7115 6.74478 11.0556C6.95597 11.4092 7.17465 11.7557 7.39919 12.0935ZM10.4557 14.5432C10.0336 14.1017 9.61269 13.6133 9.20163 13.088C9.60072 13.1031 10.0075 13.1109 10.4211 13.1109C10.8459 13.1109 11.2658 13.1016 11.6792 13.0838C11.2733 13.6186 10.8635 14.1077 10.4557 14.5432ZM14.7053 9.97871C14.9839 10.5945 15.2187 11.1902 15.4052 11.7566C14.8009 11.8903 14.1485 11.998 13.461 12.078C13.6813 11.7394 13.8946 11.3965 14.1008 11.0496C14.3105 10.6971 14.512 10.34 14.7053 9.97871ZM13.3296 10.6183C13.0139 11.1501 12.6804 11.6718 12.3297 12.1826C11.6945 12.2262 11.0579 12.2479 10.4211 12.2476C9.77242 12.2476 9.14154 12.228 8.53403 12.1898C8.1742 11.6802 7.83437 11.1575 7.51529 10.623H7.51537C7.19779 10.0913 6.90114 9.54809 6.62608 8.99455C6.90044 8.44089 7.19619 7.89742 7.51268 7.36532L7.5126 7.3654C7.82898 6.83315 8.16609 6.31275 8.5232 5.80532C9.14301 5.75984 9.77861 5.73616 10.421 5.73616H10.4211C11.0663 5.73616 11.7028 5.76008 12.3224 5.80587C12.6759 6.31254 13.0109 6.83115 13.3267 7.36074C13.6442 7.89167 13.9439 8.43249 14.2251 8.98232C13.9467 9.53777 13.648 10.0834 13.3296 10.6183ZM15.1663 0.976896C15.8642 1.36721 16.1356 2.94119 15.6971 5.00526C15.6691 5.13695 15.6377 5.27108 15.6035 5.40711C14.7387 5.21353 13.7998 5.06961 12.8167 4.98016C12.244 4.18934 11.6506 3.47037 11.0549 2.84795C11.211 2.70202 11.3708 2.55987 11.5342 2.42163C13.073 1.12319 14.5111 0.610502 15.1663 0.976896ZM10.4211 7.16921C11.4489 7.16921 12.2822 7.97724 12.2822 8.97395C12.2822 9.97066 11.4489 10.7787 10.4211 10.7787C9.3932 10.7787 8.55992 9.97066 8.55992 8.97395C8.55992 7.97724 9.3932 7.16921 10.4211 7.16921Z"/></g><defs><clipPath id="clip0_5_405"><rect width="20.842" height="18" fill="#fff"/></clipPath></defs></svg>